<svg height="512pt" viewBox="0 0 512 512" width="512pt" xmlns="http://www.w3.org/2000/svg"><path d="m256 256h256v256h-256zm0 0" fill="#ffcb5a"/><path d="m256 128c0 70.691406-57.308594 128-128 128s-128-57.308594-128-128 57.308594-128 128-128 128 57.308594 128 128zm0 0" fill="#e76e54"/><path d="m420.6875 148.6875-20.6875 20.6875v-105.375h-112v32h80v73.375l-20.6875-20.6875-22.625 22.625 59.3125 59.3125 59.3125-59.3125zm0 0" fill="#e76e54"/><path d="m144 416v-73.375l20.6875 20.6875 22.625-22.625-59.3125-59.3125-59.3125 59.3125 22.625 22.625 20.6875-20.6875v105.375h112v-32zm0 0" fill="#ffcb5a"/><path d="m128 192c-59.503906 0-109.519531-40.878906-123.792969-96-2.65625 10.257812-4.207031 20.929688-4.207031 32 0 70.574219 57.425781 128 128 128s128-57.425781 128-128c0-11.070312-1.550781-21.742188-4.207031-32-14.273438 55.121094-64.289063 96-123.792969 96zm0 0" fill="#dd523c"/><path d="m256 448h256v64h-256zm0 0" fill="#fba61f"/><g fill="#fff"><path d="m288 288h32v32h-32zm0 0"/><path d="m352 288h32v32h-32zm0 0"/><path d="m288 352h32v32h-32zm0 0"/><path d="m64 32h32v32h-32zm0 0"/><path d="m128 32h32v32h-32zm0 0"/><path d="m64 96h32v32h-32zm0 0"/></g></svg>